<svg width="30" height="31" viewBox="0 0 30 31" fill="none" xmlns="http://www.w3.org/2000/svg">
<path fill-rule="evenodd" clip-rule="evenodd" d="M2.25023 0.466553C1.0076 0.466553 0.000252665 1.47389 0.000234158 2.71652L3.72181e-10 18.438C-4.05896e-05 21.1535 3.31999 22.4718 5.18282 20.496L7.09622 18.4666H18.7502C19.9929 18.4666 21.0002 17.4592 21.0002 16.2166V2.71655C21.0002 1.47391 19.9929 0.466553 18.7502 0.466553H2.25023ZM3 18.438L3.00022 3.46655H18.0002V15.4666H7.09622C6.26993 15.4666 5.48023 15.8074 4.9134 16.4086L3 18.438Z" fill="#909090"/>
<path d="M9 25.2166V21.4666H12V24.4666H22.254C22.9458 24.4666 23.6164 24.7057 24.1521 25.1434L27 27.4703V19.9684V12.4666H24V9.46655H27.75C28.9926 9.46655 30 10.4739 30 11.7166V27.4703C30 30.0002 27.061 31.3942 25.1019 29.7934L22.254 27.4666H11.25C10.0074 27.4666 9 26.4592 9 25.2166Z" fill="#909090"/>
</svg>
