<svg width="11" height="10" viewBox="0 0 11 10" fill="none" xmlns="http://www.w3.org/2000/svg">
<path d="M0.625 0.690804C0.625 0.369239 0.883744 0.0949707 1.22026 0.0949707H3.06101C3.36017 0.0949707 3.60268 0.337483 3.60268 0.636637C3.60268 0.935792 3.36017 1.1783 3.06101 1.1783H1.70833V8.75485H9.28487V7.40216C9.28487 7.103 9.52738 6.86049 9.82653 6.86049C10.1257 6.86049 10.3682 7.103 10.3682 7.40216V9.24235C10.3682 9.57142 10.1014 9.83818 9.77237 9.83818H1.22083C0.891762 9.83818 0.625 9.57141 0.625 9.24235V0.690804Z" fill="#3993FF"/>
<path d="M9.29179 1.94429L4.74758 6.48849C4.53604 6.70002 4.19308 6.70002 3.98155 6.48849C3.77001 6.27695 3.77001 5.93399 3.98155 5.72245L8.52571 1.1783H6.39872C6.09957 1.1783 5.85706 0.935792 5.85706 0.636637C5.85706 0.337483 6.09957 0.0949707 6.39872 0.0949707H9.56262C10.0114 0.0949707 10.3751 0.45874 10.3751 0.907471V4.05211C10.3751 4.35126 10.1326 4.59377 9.83346 4.59377C9.5343 4.59377 9.29179 4.35126 9.29179 4.05211V1.94429Z" fill="#3993FF"/>
</svg>
