<svg width="22" height="28" viewBox="0 0 22 28" fill="none" xmlns="http://www.w3.org/2000/svg">
<path d="M6.5 18.9666C6.5 18.1381 7.17157 17.4666 8 17.4666H12.5C13.3284 17.4666 14 18.1381 14 18.9666C14 19.795 13.3284 20.4666 12.5 20.4666H8C7.17157 20.4666 6.5 19.795 6.5 18.9666Z" fill="#909090"/>
<path d="M8 11.4666C7.17157 11.4666 6.5 12.1381 6.5 12.9666C6.5 13.795 7.17157 14.4666 8 14.4666H14C14.8284 14.4666 15.5 13.795 15.5 12.9666C15.5 12.1381 14.8284 11.4666 14 11.4666H8Z" fill="#909090"/>
<path fill-rule="evenodd" clip-rule="evenodd" d="M0.5 3.21655C0.5 1.97391 1.50736 0.966553 2.75 0.966553H13.0233C13.6201 0.966553 14.1924 1.20361 14.6144 1.62558L20.8416 7.8529C21.2635 8.27486 21.5005 8.84715 21.5005 9.44388V25.7166C21.5005 26.9592 20.4932 27.9666 19.2505 27.9666H2.75C1.50736 27.9666 0.5 26.9592 0.5 25.7166V3.21655ZM3.5 3.96655V24.9666H18.5005V9.75453L12.7127 3.96655H3.5Z" fill="#909090"/>
</svg>
