<svg width="71" height="41" viewBox="0 0 71 41" fill="none" xmlns="http://www.w3.org/2000/svg">
<path d="M0 4.46649C0 2.25735 1.79086 0.466492 4 0.466492H67C69.2091 0.466492 71 2.25735 71 4.46649V36.4665C71 38.6756 69.2091 40.4665 67 40.4665H4C1.79086 40.4665 0 38.6756 0 36.4665V4.46649Z" fill="#3993FF"/>
<path d="M23.3551 25.6625C21.9738 25.6625 20.9004 25.2285 20.1351 24.3605C19.3698 23.4832 18.9871 22.2512 18.9871 20.6645C18.9871 19.0778 19.3698 17.8412 20.1351 16.9545C20.9004 16.0585 21.9738 15.6105 23.3551 15.6105C24.7458 15.6105 25.8191 16.0492 26.5751 16.9265C27.3404 17.7945 27.7231 19.0218 27.7231 20.6085C27.7231 22.1952 27.3404 23.4365 26.5751 24.3325C25.8191 25.2192 24.7458 25.6625 23.3551 25.6625ZM23.3551 24.1645C24.2138 24.1645 24.8671 23.8658 25.3151 23.2685C25.7631 22.6712 25.9871 21.7985 25.9871 20.6505C25.9871 19.4932 25.7631 18.6158 25.3151 18.0185C24.8671 17.4118 24.2138 17.1085 23.3551 17.1085C22.4964 17.1085 21.8431 17.4072 21.3951 18.0045C20.9471 18.6018 20.7231 19.4745 20.7231 20.6225C20.7231 21.7798 20.9471 22.6618 21.3951 23.2685C21.8431 23.8658 22.4964 24.1645 23.3551 24.1645ZM29.356 28.1265V18.3125H30.742L30.868 19.2505C31.092 18.9145 31.4 18.6532 31.792 18.4665C32.184 18.2705 32.632 18.1725 33.136 18.1725C33.752 18.1725 34.2886 18.3265 34.746 18.6345C35.2126 18.9332 35.572 19.3578 35.824 19.9085C36.076 20.4592 36.202 21.1078 36.202 21.8545C36.202 22.6198 36.0713 23.2825 35.81 23.8425C35.558 24.4025 35.194 24.8365 34.718 25.1445C34.242 25.4525 33.682 25.6065 33.038 25.6065C32.5993 25.6065 32.2026 25.5272 31.848 25.3685C31.4933 25.2098 31.1993 24.9858 30.966 24.6965V28.1265H29.356ZM30.966 21.1265V22.6945C30.966 23.1332 31.1246 23.4925 31.442 23.7725C31.7593 24.0525 32.1746 24.1925 32.688 24.1925C33.276 24.1925 33.7333 23.9918 34.06 23.5905C34.3866 23.1798 34.55 22.6105 34.55 21.8825C34.55 21.1545 34.3866 20.5898 34.06 20.1885C33.7333 19.7872 33.2806 19.5865 32.702 19.5865C32.1886 19.5865 31.7686 19.7312 31.442 20.0205C31.1246 20.3005 30.966 20.6692 30.966 21.1265ZM44.0372 23.3525C43.9718 23.7445 43.8085 24.1132 43.5472 24.4585C43.2952 24.8038 42.9405 25.0838 42.4832 25.2985C42.0258 25.5038 41.4752 25.6065 40.8312 25.6065C40.0658 25.6065 39.4265 25.4525 38.9132 25.1445C38.3998 24.8272 38.0125 24.3932 37.7512 23.8425C37.4992 23.2918 37.3732 22.6572 37.3732 21.9385C37.3732 21.2012 37.5038 20.5525 37.7652 19.9925C38.0265 19.4232 38.4138 18.9798 38.9272 18.6625C39.4405 18.3358 40.0705 18.1725 40.8172 18.1725C41.5358 18.1725 42.1378 18.3218 42.6232 18.6205C43.1085 18.9192 43.4725 19.3252 43.7152 19.8385C43.9672 20.3518 44.0932 20.9352 44.0932 21.5885C44.0932 21.7005 44.0885 21.8312 44.0792 21.9805C44.0698 22.1298 44.0512 22.2558 44.0232 22.3585H39.0112C39.0765 22.9465 39.2585 23.4132 39.5572 23.7585C39.8558 24.1038 40.2945 24.2765 40.8732 24.2765C41.2745 24.2765 41.6152 24.1972 41.8952 24.0385C42.1845 23.8705 42.3758 23.6418 42.4692 23.3525H44.0372ZM40.8452 19.4465C40.3505 19.4465 39.9492 19.6005 39.6412 19.9085C39.3425 20.2072 39.1465 20.6272 39.0532 21.1685H42.0772C42.2265 21.1685 42.3245 21.1452 42.3712 21.0985C42.4272 21.0425 42.4552 20.9538 42.4552 20.8325C42.4552 20.4872 42.3152 20.1698 42.0352 19.8805C41.7645 19.5912 41.3678 19.4465 40.8452 19.4465ZM45.6255 25.4665V18.3125H47.0115L47.1375 19.2225C47.3428 18.9145 47.6322 18.6625 48.0055 18.4665C48.3788 18.2705 48.8315 18.1725 49.3635 18.1725C50.1288 18.1725 50.7308 18.3918 51.1695 18.8305C51.6175 19.2692 51.8415 19.9178 51.8415 20.7765V25.4665H50.2315V21.0425C50.2315 20.0812 49.7835 19.6005 48.8875 19.6005C48.4582 19.6005 48.0755 19.7265 47.7395 19.9785C47.4035 20.2305 47.2355 20.5945 47.2355 21.0705V25.4665H45.6255Z" fill="black"/>
</svg>
