<svg width="118" height="41" viewBox="0 0 118 41" fill="none" xmlns="http://www.w3.org/2000/svg">
<path fill-rule="evenodd" clip-rule="evenodd" d="M21.3157 27.9154C20.9662 27.9817 20.6759 27.9656 20.4153 27.7777C20.1545 27.5898 20 27.2879 20 26.9665V14.4665C20 13.9371 20.4063 13.6297 20.834 13.4158C21.0613 13.3022 21.3863 13.1586 21.8088 13.0178C22.6552 12.7357 23.8868 12.4665 25.5 12.4665C27.1728 12.4665 28.4499 12.8859 29.3222 13.3221C29.5858 13.4539 29.8117 13.5868 30 13.7095C30.1883 13.5868 30.4142 13.4539 30.6778 13.3221C31.5501 12.8859 32.8272 12.4665 34.5 12.4665C36.1132 12.4665 37.3448 12.7357 38.1912 13.0178C38.6621 13.1748 39.1354 13.3649 39.5547 13.6344C39.8329 13.8199 40 14.1321 40 14.4665V26.9665C40 27.2879 39.8455 27.5898 39.5847 27.7777C39.3241 27.9656 39.0338 27.9817 38.6843 27.9154C38.6405 27.907 38.6188 27.9001 38.5901 27.8909L38.571 27.8849L38.5571 27.8806C38.5369 27.8745 38.5115 27.8673 38.4762 27.8585C38.3141 27.818 38.0589 27.7609 37.7106 27.7029C37.0142 27.5868 35.9442 27.4665 34.5 27.4665C33.1719 27.4665 32.5194 27.7957 32.225 28.0165C32.072 28.1313 31.9564 28.281 31.8432 28.4274C31.6307 28.7026 31.4269 28.9665 31 28.9665H30.01C30.0067 28.9665 30.0033 28.9665 30 28.9664C29.9967 28.9665 29.9933 28.9665 29.99 28.9665H29C28.5731 28.9665 28.3693 28.7026 28.1568 28.4274C28.0436 28.281 27.928 28.1313 27.775 28.0165C27.4806 27.7957 26.8281 27.4665 25.5 27.4665C24.0558 27.4665 22.9858 27.5868 22.2894 27.7029C21.9411 27.7609 21.8192 27.7823 21.5238 27.8585C21.4915 27.8668 21.4651 27.875 21.44 27.8828C21.4015 27.8948 21.3657 27.9059 21.3157 27.9154ZM29 26.4354V15.4468C28.8586 15.3492 28.6678 15.2309 28.4278 15.1109C27.8001 14.7971 26.8272 14.4665 25.5 14.4665C24.1132 14.4665 23.0948 14.6973 22.4412 14.9152C22.2694 14.9725 22.1223 15.029 22 15.0805V25.7236C22.8026 25.592 23.9694 25.4665 25.5 25.4665C27.1719 25.4665 28.2694 25.8873 28.975 26.4165L29 26.4354ZM31 26.4354L31.025 26.4165C31.7306 25.8873 32.8281 25.4665 34.5 25.4665C36.0306 25.4665 37.1974 25.592 38 25.7236V15.0805C37.8777 15.029 37.7306 14.9725 37.5588 14.9152C36.9052 14.6973 35.8868 14.4665 34.5 14.4665C33.1728 14.4665 32.1999 14.7971 31.5722 15.1109C31.3322 15.2309 31.1414 15.3492 31 15.4468V26.4354Z" fill="#FAFAFA"/>
<path d="M53.7848 25.4665V17.2625H50.9008V15.8065H58.3628V17.2625H55.4788V25.4665H53.7848ZM59.1541 22.9885V18.3125H60.7641V22.7225C60.7641 23.6932 61.2028 24.1785 62.0801 24.1785C62.5561 24.1785 62.9435 24.0385 63.2421 23.7585C63.5501 23.4785 63.7041 23.1238 63.7041 22.6945V18.3125H65.3141V25.4665H63.9281L63.8021 24.5565C63.5875 24.8832 63.2888 25.1398 62.9061 25.3265C62.5235 25.5132 62.0895 25.6065 61.6041 25.6065C60.8201 25.6065 60.2135 25.3825 59.7841 24.9345C59.3641 24.4772 59.1541 23.8285 59.1541 22.9885ZM67.6008 23.4785V19.6425H66.3548V18.3545H67.1388C67.3442 18.3545 67.4795 18.3265 67.5448 18.2705C67.6195 18.2052 67.6662 18.0698 67.6848 17.8645L67.8808 16.2125H69.1968V18.3125H70.9328V19.6425H69.2108V23.2125C69.2108 23.5952 69.2902 23.8612 69.4488 24.0105C69.6075 24.1598 69.8922 24.2345 70.3028 24.2345H71.0728V25.5225C70.8395 25.5505 70.6062 25.5692 70.3728 25.5785C70.1395 25.5972 69.9295 25.6065 69.7428 25.6065C69.0148 25.6065 68.4735 25.4338 68.1188 25.0885C67.7735 24.7432 67.6008 24.2065 67.6008 23.4785ZM75.4858 25.6065C74.3845 25.6065 73.5211 25.2798 72.8958 24.6265C72.2798 23.9638 71.9718 23.0538 71.9718 21.8965C71.9718 20.7298 72.2845 19.8198 72.9098 19.1665C73.5351 18.5038 74.3938 18.1725 75.4858 18.1725C76.5871 18.1725 77.4458 18.4992 78.0618 19.1525C78.6871 19.8058 78.9998 20.7158 78.9998 21.8825C78.9998 23.0398 78.6871 23.9498 78.0618 24.6125C77.4365 25.2752 76.5778 25.6065 75.4858 25.6065ZM75.4858 24.1925C76.0831 24.1925 76.5405 23.9918 76.8578 23.5905C77.1845 23.1892 77.3478 22.6198 77.3478 21.8825C77.3478 21.1452 77.1845 20.5805 76.8578 20.1885C76.5405 19.7872 76.0831 19.5865 75.4858 19.5865C74.8885 19.5865 74.4265 19.7872 74.0998 20.1885C73.7825 20.5805 73.6238 21.1498 73.6238 21.8965C73.6238 22.6338 73.7825 23.2032 74.0998 23.6045C74.4265 23.9965 74.8885 24.1925 75.4858 24.1925ZM80.5249 25.4665V18.3125H81.9109L82.0509 19.3205C82.2376 18.9938 82.5036 18.7325 82.8489 18.5365C83.1942 18.3405 83.5816 18.2425 84.0109 18.2425C84.2816 18.2425 84.4869 18.2658 84.6269 18.3125V19.7265H84.1369C83.4556 19.7265 82.9516 19.8758 82.6249 20.1745C82.2982 20.4638 82.1349 20.9212 82.1349 21.5465V25.4665H80.5249ZM85.8146 17.4165V15.8065H87.5366V17.4165H85.8146ZM85.8706 25.4665V18.3125H87.4806V25.4665H85.8706ZM93.8789 25.4665L93.7669 24.6405C93.5803 24.9112 93.3003 25.1398 92.9269 25.3265C92.5629 25.5132 92.0963 25.6065 91.5269 25.6065C90.7336 25.6065 90.1223 25.4198 89.6929 25.0465C89.2636 24.6732 89.0489 24.1598 89.0489 23.5065C89.0489 23.0025 89.1563 22.6012 89.3709 22.3025C89.5856 22.0038 89.8703 21.7798 90.2249 21.6305C90.5889 21.4812 90.9856 21.3785 91.4149 21.3225L92.9689 21.1125C93.2489 21.0752 93.4309 21.0238 93.5149 20.9585C93.5989 20.8838 93.6409 20.7672 93.6409 20.6085C93.6409 20.4312 93.5989 20.2585 93.5149 20.0905C93.4309 19.9225 93.2863 19.7825 93.0809 19.6705C92.8756 19.5585 92.5956 19.5025 92.2409 19.5025C91.8396 19.5025 91.5036 19.5912 91.2329 19.7685C90.9623 19.9458 90.8036 20.2118 90.7569 20.5665H89.2589C89.2683 20.1278 89.3896 19.7312 89.6229 19.3765C89.8656 19.0125 90.2156 18.7232 90.6729 18.5085C91.1303 18.2845 91.6809 18.1725 92.3249 18.1725C93.2676 18.1725 93.9863 18.4245 94.4809 18.9285C94.9756 19.4325 95.2229 20.1278 95.2229 21.0145V25.4665H93.8789ZM93.6549 23.0865V22.1765L91.7789 22.4425C91.4056 22.4985 91.1163 22.5965 90.9109 22.7365C90.7149 22.8765 90.6169 23.0958 90.6169 23.3945C90.6169 23.7025 90.7336 23.9358 90.9669 24.0945C91.2003 24.2438 91.5083 24.3185 91.8909 24.3185C92.1896 24.3185 92.4743 24.2765 92.7449 24.1925C93.0156 24.0992 93.2349 23.9638 93.4029 23.7865C93.5709 23.5998 93.6549 23.3665 93.6549 23.0865ZM97.0269 25.4665V15.4565H98.6369V25.4665H97.0269Z" fill="#FAFAFA"/>
</svg>
